<svg xmlns="http://www.w3.org/2000/svg" version="1.1" xmlns:xlink="http://www.w3.org/1999/xlink" xmlns:svgjs="http://svgjs.dev/svgjs" width="1440" height="560" preserveAspectRatio="none" viewBox="0 0 1440 560"><g mask="url(&quot;#SvgjsMask1090&quot;)" fill="none"><rect width="1440" height="560" x="0" y="0" fill="rgba(243, 246, 243, 1)"></rect><path d="M0,330.447C77.89,342.099,157.303,388.283,229.877,357.695C304.054,326.432,345.241,246.113,376.296,171.849C406.686,99.176,423.119,18.3,403.727,-58.047C385.198,-130.995,315.567,-174.422,272.641,-236.245C223.078,-307.626,212.053,-415.703,131.968,-449.441C52.224,-483.035,-42.594,-443.733,-117.646,-400.665C-184.307,-362.412,-218.295,-289.726,-259.461,-224.824C-294.76,-169.173,-317.722,-110.75,-340.71,-48.987C-370.218,30.296,-447.445,111.351,-413.408,188.797C-379.494,265.963,-269.291,267.626,-189.552,294.948C-127.483,316.215,-64.889,320.74,0,330.447" fill="#cfdbcf"></path><path d="M1440 1228.009C1565.222 1246.551 1705.8 1200.545 1792.192 1108.021 1875.4479999999999 1018.856 1832.623 873.2239999999999 1877.277 759.698 1918.3899999999999 655.175 2052.773 585.256 2041.784 473.477 2030.842 362.182 1899.878 309.45500000000004 1824.8600000000001 226.517 1751.8220000000001 145.767 1704.641 39.894000000000005 1606.659-7.5890000000000555 1500.469-59.049999999999955 1377.815-68.80499999999995 1261.987-46.25800000000004 1139.23-22.361999999999966 1005.739 19.41300000000001 935.6990000000001 123.02100000000002 866.853 224.86399999999998 890.081 360.855 904.229 482.968 915.71 582.063 967.287 666.213 1009.127 756.773 1050.7559999999999 846.876 1082.037 939.533 1149.0140000000001 1012.784 1232.107 1103.661 1318.19 1209.972 1440 1228.009" fill="#ffffff"></path></g><defs><mask id="SvgjsMask1090"><rect width="1440" height="560" fill="#ffffff"></rect></mask></defs></svg>